<svg id="Scope_blue" data-name="Scope blue 1" xmlns="http://www.w3.org/2000/svg" viewBox="0 0 1920 1080"><defs><style>.cls-1{fill:#fff;}.cls-2{fill:#f4a55b;}.cls-2,.cls-3{stroke:#fff;stroke-miterlimit:10;stroke-width:6.5px;}.cls-3{fill:#4393d2;}</style></defs><title>Plan de travail 1 copie</title><circle class="cls-1" cx="899.18" cy="530.99" r="103.92"/><path class="cls-1" d="M187.69,430.55a272.72,272.72,0,0,0-33.17,6.85,61.46,61.46,0,0,0-26,13.88c-4.15,3.82-7.9,8.35-9.86,13.24-2.43,7.66-3.78,17.84,0,26.6,3.11,6.43,8.93,14,21.7,19.38A47,47,0,0,0,155.68,514c19,.65,103.22-1.13,133,.86a44.42,44.42,0,0,1,13.64,3.1c9.61,3.89,12.46,7.23,17.6,15,1.75,2.78,3.93,8.77,5.18,11.2,4.71,10.39,6.26,31.78,6.34,37.51a69.33,69.33,0,0,1-2.24,17.58,48.39,48.39,0,0,1-6.7,15.81,63.73,63.73,0,0,1-25.18,23c-4,2.1-6.76,3.27-6.76,3.27-25.75,10.73-52.83,14.81-81.24,14.81a239.27,239.27,0,0,1-25.64-1.42C146.5,650.66,114.64,640,88.11,620c-1-.8-2.07-1.6-3.07-2.39l31.82-21.55,1.43,1.09q21.35,15.76,49.93,22.85a165.23,165.23,0,0,0,40.6,5q5.33,0,10.68-.4a155.69,155.69,0,0,0,50.66-11.87,8.74,8.74,0,0,1,.9-.33c.19-.06.46-.17.81-.32s.55-.26.82-.4.68-.36.93-.48l1-.46c11.73-5.65,21.53-12.16,25-22.22,2.43-7.31,1.2-16.7,1.2-16.7-.35-10.17-4.95-23.33-16.8-25.72-28.56-3.28-92-.82-126.31-.76-16.8-.52-24.57-.76-39.25-7.89-.71-.35-1.39-.74-2-1.11-.86-.48-1.7-1-2.53-1.51-8.29-5.33-16.69-11.82-22.54-22,0,0-21.62-34.71,4.17-74.79,7.5-9.33,11.91-13.85,22.12-20.1,30.78-19.52,61.79-19.39,89.84-19.39A251.87,251.87,0,0,1,233.92,400c33.83,3.9,63.54,17.71,88.49,34.76l-27.15,22.77c-12.86-8.63-30.17-18.42-46.65-22.82-16-4.26-32.09-5.32-44.23-5.3A122.63,122.63,0,0,0,187.69,430.55ZM91,503.25"/><path class="cls-1" d="M677.24,563.24a131.12,131.12,0,0,1-82.77,89.08,130.91,130.91,0,0,1-93.75-2.85,130.19,130.19,0,0,1-69.15-69.35,129.8,129.8,0,0,1,27.87-142.56,131.08,131.08,0,0,1,41.28-28.06,129.39,129.39,0,0,1,50.64-10.17q44.73,0,79.92,27.45a132.47,132.47,0,0,1,28.47,30.51,127.88,127.88,0,0,1,17.49,38.43l-31.52,8.55A97.43,97.43,0,0,0,513.53,439.6a96.11,96.11,0,0,0-31.11,20.94,98.42,98.42,0,0,0-20.95,107,100.68,100.68,0,0,0,20.95,31.12,97.63,97.63,0,0,0,31.11,20.74,97.34,97.34,0,0,0,97.82-12.81,94.16,94.16,0,0,0,34.37-51.86Z"/><path class="cls-1" d="M1259.27,399.33a129.46,129.46,0,0,1,50.64,10.17,129.62,129.62,0,0,1,69.34,69.34,131.16,131.16,0,0,1,0,101.28,129.6,129.6,0,0,1-69.34,69.35,129.46,129.46,0,0,1-50.64,10.17,130.3,130.3,0,0,1-97.62-44.13v84.8h-32.53V529.48a129.45,129.45,0,0,1,10.16-50.64,129.69,129.69,0,0,1,69.35-69.34A129.39,129.39,0,0,1,1259.27,399.33Zm0,227.77a95.89,95.89,0,0,0,38-7.73,99,99,0,0,0,51.86-51.86,97.53,97.53,0,0,0,0-76.06,98.93,98.93,0,0,0-51.86-51.85,97.41,97.41,0,0,0-76.06,0,98.93,98.93,0,0,0-51.86,51.85,97.41,97.41,0,0,0,0,76.06,99,99,0,0,0,51.86,51.86A95.86,95.86,0,0,0,1259.27,627.1Z"/><path class="cls-1" d="M1511.85,537.62a93.88,93.88,0,0,0,9.76,35.18,96,96,0,0,0,21.15,28.27,97.76,97.76,0,0,0,30.1,19.11,96.56,96.56,0,0,0,36.2,6.92,94.62,94.62,0,0,0,56.53-18.1,95.73,95.73,0,0,0,35.18-46.16L1731.48,574a130.12,130.12,0,0,1-171.23,76.06,131.11,131.11,0,0,1-40.47-25.83,130.54,130.54,0,0,1-40.67-86.63q-.21-4.27-.21-8.14a133,133,0,0,1,2.24-24.4A128.69,128.69,0,0,1,1497,463.19a131.25,131.25,0,0,1,66.91-55.73A130.18,130.18,0,0,1,1737,505.08a133,133,0,0,1,2.24,24.4q0,3.87-.2,8.14Zm97.21-105.75a94.88,94.88,0,0,0-60.2,20.74,96.14,96.14,0,0,0-34.37,52.47h189.13a97.64,97.64,0,0,0-94.56-73.21Z"/><path class="cls-2" d="M876.54,531.48a23.21,23.21,0,0,1,23.21-23.22,22.74,22.74,0,0,1,5.11.58,11.37,11.37,0,0,0-.14,1.94A15.3,15.3,0,0,0,920,526.11a11.21,11.21,0,0,0,2.27-.21,23.75,23.75,0,0,1,.66,5.58,23.2,23.2,0,1,1-46.4,0Z"/><path class="cls-3" d="M1021.33,478.84A129.6,129.6,0,0,0,952,409.5a131.14,131.14,0,0,0-101.27,0,129.6,129.6,0,0,0-69.35,69.34,131.16,131.16,0,0,0,0,101.28,132.22,132.22,0,0,0,27.86,41.49,133.67,133.67,0,0,0,19.4,15.9l-7.74,11L813,643l-37.63,54,27.22,19,37.63-54-7.87-5.48,8.32-11.78q4.9,2.6,10.07,4.8a131.14,131.14,0,0,0,101.27,0,129.57,129.57,0,0,0,69.35-69.35,131.16,131.16,0,0,0,0-101.28Zm-30.1,88.67a98.93,98.93,0,0,1-51.85,51.86,97.41,97.41,0,0,1-76.06,0,99,99,0,0,1-51.86-51.86,97.41,97.41,0,0,1,0-76.06,98.93,98.93,0,0,1,51.86-51.85,97.41,97.41,0,0,1,76.06,0,98.86,98.86,0,0,1,51.85,51.85,97.41,97.41,0,0,1,0,76.06Z"/></svg>