<svg id="Scope_black" data-name="Scope black" xmlns="http://www.w3.org/2000/svg" viewBox="0 0 1920 1080"><defs><style>.cls-1{fill:#f4a55b;}.cls-2{fill:#4393d2;}</style></defs><title>Plan de travail 1 copie 2</title><path d="M237.91,475.39a274.64,274.64,0,0,0-33.17,6.85,61.57,61.57,0,0,0-26,13.88c-4.15,3.82-7.9,8.35-9.86,13.25-2.43,7.65-3.78,17.83,0,26.59,3.11,6.43,8.93,14,21.7,19.39a47.31,47.31,0,0,0,15.33,3.52c19,.65,103.22-1.13,133,.86a44.15,44.15,0,0,1,13.64,3.11c9.61,3.88,12.46,7.22,17.6,15,1.75,2.78,3.93,8.78,5.18,11.2,4.71,10.39,6.26,31.78,6.34,37.52a69.32,69.32,0,0,1-2.24,17.57,48.55,48.55,0,0,1-6.7,15.82,63.77,63.77,0,0,1-25.18,23c-4,2.1-6.76,3.27-6.76,3.27C315.06,696.89,288,701,259.57,701a239.27,239.27,0,0,1-25.64-1.42c-37.21-4-69.07-14.75-95.6-34.7-1.05-.8-2.07-1.59-3.07-2.39l31.82-21.55,1.43,1.09q21.35,15.78,49.93,22.85a165.23,165.23,0,0,0,40.6,5q5.32,0,10.68-.4a155.75,155.75,0,0,0,50.66-11.87,8.74,8.74,0,0,1,.9-.33c.19-.06.46-.17.81-.32a8.86,8.86,0,0,0,.82-.4c.36-.2.68-.36.93-.48l1-.46c11.73-5.64,21.52-12.16,25-22.22,2.42-7.3,1.2-16.7,1.2-16.7-.36-10.17-4.95-23.33-16.8-25.72-28.56-3.27-92-.82-126.31-.76-16.8-.51-24.58-.76-39.25-7.89-.71-.34-1.39-.74-2.05-1.11-.86-.48-1.7-1-2.53-1.51-8.29-5.33-16.69-11.81-22.54-22,0,0-21.62-34.71,4.17-74.79,7.5-9.33,11.91-13.85,22.12-20.1,30.78-19.51,61.79-19.39,89.84-19.39a251.87,251.87,0,0,1,26.44,1.42c33.83,3.91,63.54,17.71,88.49,34.76l-27.15,22.77c-12.86-8.63-30.17-18.42-46.65-22.81-16-4.27-32.09-5.33-44.23-5.31A124.26,124.26,0,0,0,237.91,475.39Zm-96.74,72.7"/><path d="M727.46,608.08a131.12,131.12,0,0,1-82.77,89.08,130.91,130.91,0,0,1-93.75-2.85A130.19,130.19,0,0,1,481.79,625,129.82,129.82,0,0,1,509.66,482.4a131.25,131.25,0,0,1,41.28-28.06,129.39,129.39,0,0,1,50.64-10.17q44.73,0,79.92,27.46A132.23,132.23,0,0,1,710,502.13a127.93,127.93,0,0,1,17.49,38.44l-31.52,8.54a97.58,97.58,0,0,0-163.3-43.72,98.41,98.41,0,0,0-20.95,107,100.38,100.38,0,0,0,20.95,31.12,97.63,97.63,0,0,0,31.11,20.74,97.34,97.34,0,0,0,97.82-12.81,94.16,94.16,0,0,0,34.37-51.86Z"/><path class="cls-1" d="M951.57,444.17a129.38,129.38,0,0,1,50.63,10.17,129.57,129.57,0,0,1,69.35,69.35,131.14,131.14,0,0,1,0,101.27,129.57,129.57,0,0,1-69.35,69.35,131.14,131.14,0,0,1-101.27,0A129.57,129.57,0,0,1,831.58,625a131.14,131.14,0,0,1,0-101.27,129.57,129.57,0,0,1,69.35-69.35A129.39,129.39,0,0,1,951.57,444.17Zm0,227.77a95.75,95.75,0,0,0,38-7.73,98.93,98.93,0,0,0,51.85-51.86,97.39,97.39,0,0,0,0-76.05,98.93,98.93,0,0,0-51.85-51.86,97.41,97.41,0,0,0-76.06,0,99,99,0,0,0-51.86,51.86,97.39,97.39,0,0,0,0,76.05,99,99,0,0,0,51.86,51.86A95.68,95.68,0,0,0,951.57,671.94Z"/><path d="M1309.49,444.17a129.46,129.46,0,0,1,50.64,10.17,129.6,129.6,0,0,1,69.34,69.35,131.14,131.14,0,0,1,0,101.27,129.6,129.6,0,0,1-69.34,69.35,129.46,129.46,0,0,1-50.64,10.17,130.3,130.3,0,0,1-97.62-44.13v84.8h-32.53V574.32a129.37,129.37,0,0,1,10.16-50.63,129.66,129.66,0,0,1,69.35-69.35A129.39,129.39,0,0,1,1309.49,444.17Zm0,227.77a95.75,95.75,0,0,0,38-7.73,98.93,98.93,0,0,0,51.85-51.86,97.39,97.39,0,0,0,0-76.05,98.93,98.93,0,0,0-51.85-51.86,97.41,97.41,0,0,0-76.06,0,99,99,0,0,0-51.86,51.86,97.39,97.39,0,0,0,0,76.05,99,99,0,0,0,51.86,51.86A95.68,95.68,0,0,0,1309.49,671.94Z"/><path d="M1562.07,582.46a93.83,93.83,0,0,0,9.76,35.18A96,96,0,0,0,1593,645.91a98,98,0,0,0,30.1,19.12,96.55,96.55,0,0,0,36.2,6.91,94.62,94.62,0,0,0,56.53-18.1A95.68,95.68,0,0,0,1751,607.68l30.71,11.18a130.12,130.12,0,0,1-171.23,76.06A131.11,131.11,0,0,1,1570,669.09a130.54,130.54,0,0,1-40.67-86.63q-.21-4.28-.21-8.14a133,133,0,0,1,2.24-24.4A128.69,128.69,0,0,1,1547.22,508a131.17,131.17,0,0,1,66.91-55.72,130.17,130.17,0,0,1,173.06,97.61,133,133,0,0,1,2.24,24.4q0,3.87-.2,8.14Zm97.21-105.75a94.94,94.94,0,0,0-60.2,20.74,96.14,96.14,0,0,0-34.37,52.47h189.13a97.64,97.64,0,0,0-94.56-73.21Z"/><path class="cls-2" d="M926.76,576.32A23.21,23.21,0,0,1,950,553.1a22.74,22.74,0,0,1,5.11.58,11.41,11.41,0,0,0-.14,2A15.3,15.3,0,0,0,970.23,571a12,12,0,0,0,2.27-.2,23.66,23.66,0,0,1,.66,5.57,23.2,23.2,0,1,1-46.4,0Z"/><rect class="cls-1" x="873.03" y="681.19" width="13.95" height="23.21" transform="translate(560.81 -380.75) rotate(35.23)"/><rect class="cls-1" x="841.4" y="691.39" width="33.17" height="65.85" transform="matrix(0.82, 0.57, -0.57, 0.82, 567.85, -360.39)"/></svg>