<svg id="Scope_orange" data-name="Scope orange" xmlns="http://www.w3.org/2000/svg" viewBox="0 0 1920 1080"><defs><style>.cls-1{fill:#fff;}.cls-2{fill:#4393d2;stroke-width:5px;}.cls-2,.cls-3{stroke:#fff;stroke-miterlimit:10;}.cls-3{fill:#f4a55b;stroke-width:6.5px;}</style></defs><title>Plan de travail 1</title><circle class="cls-1" cx="955.21" cy="578.32" r="103.92"/><path class="cls-1" d="M243.72,475.83a270.83,270.83,0,0,0-33.17,6.85,61.46,61.46,0,0,0-26,13.88c-4.15,3.82-7.9,8.34-9.86,13.24-2.43,7.65-3.78,17.84,0,26.59,3.11,6.44,8.93,14,21.7,19.39a47,47,0,0,0,15.32,3.53c19,.65,103.23-1.14,133,.86a44.14,44.14,0,0,1,13.64,3.1c9.61,3.89,12.46,7.23,17.6,15,1.75,2.78,3.93,8.77,5.18,11.2,4.71,10.38,6.26,31.77,6.34,37.51a69.38,69.38,0,0,1-2.24,17.58,48.39,48.39,0,0,1-6.7,15.81,63.73,63.73,0,0,1-25.18,23c-4,2.1-6.76,3.27-6.76,3.27-25.75,10.73-52.83,14.81-81.24,14.81A239.27,239.27,0,0,1,239.74,700c-37.21-4-69.07-14.75-95.6-34.7-1-.8-2.07-1.6-3.07-2.39l31.82-21.56,1.43,1.1q21.35,15.76,49.93,22.85a165.71,165.71,0,0,0,40.6,5.05q5.32,0,10.68-.4a155.5,155.5,0,0,0,50.66-11.88c.29-.12.59-.22.9-.32s.46-.17.81-.32.55-.26.82-.4.68-.36.93-.48l1-.46c11.73-5.65,21.52-12.17,25-22.22,2.42-7.31,1.2-16.71,1.2-16.71-.36-10.16-4.95-23.32-16.8-25.71-28.56-3.28-92-.83-126.31-.76-16.8-.52-24.58-.76-39.25-7.89-.71-.35-1.39-.74-2.05-1.11-.86-.48-1.7-1-2.53-1.51-8.29-5.33-16.69-11.82-22.54-22,0,0-21.62-34.72,4.17-74.8,7.5-9.32,11.91-13.85,22.12-20.1,30.78-19.51,61.79-19.38,89.84-19.38a248.86,248.86,0,0,1,26.43,1.42c33.84,3.9,63.55,17.71,88.5,34.76L351.29,502.8c-12.86-8.63-30.17-18.42-46.65-22.82-16-4.26-32.09-5.32-44.23-5.3A121.05,121.05,0,0,0,243.72,475.83ZM147,548.53"/><path class="cls-1" d="M733.27,608.52a130.37,130.37,0,0,1-125.88,96.4,129.57,129.57,0,0,1-50.64-10.17A130.19,130.19,0,0,1,487.6,625.4a129.8,129.8,0,0,1,27.87-142.56,131.08,131.08,0,0,1,41.28-28.06,129.39,129.39,0,0,1,50.64-10.17q44.73,0,79.92,27.45a132.47,132.47,0,0,1,28.47,30.51A127.88,127.88,0,0,1,733.27,541l-31.52,8.54a97.43,97.43,0,0,0-132.19-64.66,96.11,96.11,0,0,0-31.11,20.94,98.42,98.42,0,0,0-21,107,100.62,100.62,0,0,0,21,31.12,97.8,97.8,0,0,0,31.11,20.74,97.34,97.34,0,0,0,97.82-12.81A94.2,94.2,0,0,0,701.75,600Z"/><path class="cls-1" d="M1315.3,444.61a129.46,129.46,0,0,1,50.64,10.17,129.62,129.62,0,0,1,69.34,69.34,131.16,131.16,0,0,1,0,101.28,129.6,129.6,0,0,1-69.34,69.35,129.64,129.64,0,0,1-50.64,10.17,130.3,130.3,0,0,1-97.62-44.13v84.8h-32.53V574.76a129.45,129.45,0,0,1,10.16-50.64,129.69,129.69,0,0,1,69.35-69.34A129.39,129.39,0,0,1,1315.3,444.61Zm0,227.77a95.93,95.93,0,0,0,38-7.73,98.93,98.93,0,0,0,51.85-51.86,97.41,97.41,0,0,0,0-76.06,98.86,98.86,0,0,0-51.85-51.85,97.41,97.41,0,0,0-76.06,0,98.93,98.93,0,0,0-51.86,51.85,97.41,97.41,0,0,0,0,76.06,99,99,0,0,0,51.86,51.86A95.86,95.86,0,0,0,1315.3,672.38Z"/><path class="cls-1" d="M1567.88,582.9a93.94,93.94,0,0,0,9.76,35.18,95.81,95.81,0,0,0,21.15,28.27,97.76,97.76,0,0,0,30.1,19.11,96.54,96.54,0,0,0,36.19,6.92,94.63,94.63,0,0,0,56.54-18.1,95.71,95.71,0,0,0,35.18-46.17l30.71,11.19a130.12,130.12,0,0,1-171.23,76.06,131.11,131.11,0,0,1-40.47-25.83,130.61,130.61,0,0,1-40.68-86.63q-.2-4.27-.2-8.14a133,133,0,0,1,2.24-24.4,128.83,128.83,0,0,1,15.86-41.9,131.3,131.3,0,0,1,66.91-55.72A130.17,130.17,0,0,1,1793,550.36a133,133,0,0,1,2.24,24.4q0,3.87-.2,8.14Zm97.2-105.75a94.87,94.87,0,0,0-60.19,20.74,96.11,96.11,0,0,0-34.37,52.47h189.13a97.64,97.64,0,0,0-94.57-73.21Z"/><path class="cls-2" d="M932.57,576.76a23.21,23.21,0,0,1,23.21-23.22,22.74,22.74,0,0,1,5.11.58,11.29,11.29,0,0,0-.14,1.94A15.3,15.3,0,0,0,976,571.39a11.21,11.21,0,0,0,2.27-.21,23.75,23.75,0,0,1,.66,5.58,23.2,23.2,0,1,1-46.4,0Z"/><path class="cls-3" d="M1077.36,524.12A129.6,129.6,0,0,0,1008,454.78a131.14,131.14,0,0,0-101.27,0,129.6,129.6,0,0,0-69.35,69.34,131.16,131.16,0,0,0,0,101.28,132.22,132.22,0,0,0,27.86,41.49,133.67,133.67,0,0,0,19.4,15.9l-7.74,11L869,688.25l-37.63,54,27.22,19,37.63-54-7.87-5.48L896.67,690q4.91,2.59,10.07,4.8a131.14,131.14,0,0,0,101.27,0,129.57,129.57,0,0,0,69.35-69.35,131.16,131.16,0,0,0,0-101.28Zm-30.1,88.67a98.93,98.93,0,0,1-51.85,51.86,97.41,97.41,0,0,1-76.06,0,99,99,0,0,1-51.86-51.86,97.41,97.41,0,0,1,0-76.06,98.93,98.93,0,0,1,51.86-51.85,97.41,97.41,0,0,1,76.06,0,98.86,98.86,0,0,1,51.85,51.85,97.41,97.41,0,0,1,0,76.06Z"/></svg>